<svg width="440" height="86" viewBox="0 0 440 86" fill="none" xmlns="http://www.w3.org/2000/svg">
<path d="M347.102 59.5C348.076 59.5 348.827 59.7793 349.357 60.3379C349.887 60.8822 350.152 61.5697 350.152 62.4004C350.152 63.2168 349.887 63.8971 349.357 64.4414C348.827 64.9714 348.076 65.2363 347.102 65.2363C346.171 65.2363 345.433 64.9714 344.889 64.4414C344.344 63.9115 344.072 63.2311 344.072 62.4004C344.072 61.5697 344.337 60.8822 344.867 60.3379C345.397 59.7793 346.142 59.5 347.102 59.5ZM365.686 61.2617C366.989 61.2617 368.07 60.8822 368.93 60.123C369.789 59.3639 370.247 58.4258 370.305 57.3086H375.225C375.167 58.7552 374.716 60.1087 373.871 61.3691C373.026 62.6152 371.88 63.6035 370.434 64.334C368.987 65.0645 367.426 65.4297 365.75 65.4297C362.499 65.4297 359.921 64.377 358.016 62.2715C356.111 60.166 355.158 57.2585 355.158 53.5488V53.0117C355.158 49.474 356.104 46.6452 357.994 44.5254C359.885 42.3913 362.463 41.3242 365.729 41.3242C368.493 41.3242 370.742 42.1335 372.475 43.752C374.222 45.3561 375.139 47.4688 375.225 50.0898H370.305C370.247 48.7578 369.789 47.6621 368.93 46.8027C368.085 45.9434 367.003 45.5137 365.686 45.5137C363.995 45.5137 362.692 46.1296 361.775 47.3613C360.859 48.5788 360.393 50.4336 360.379 52.9258V53.7637C360.379 56.2845 360.83 58.168 361.732 59.4141C362.649 60.6458 363.967 61.2617 365.686 61.2617ZM378.189 53.1621C378.189 50.8848 378.641 48.8366 379.543 47.0176C380.445 45.1842 381.713 43.7806 383.346 42.8066C384.979 41.8184 386.855 41.3242 388.975 41.3242C392.111 41.3242 394.654 42.334 396.602 44.3535C398.564 46.373 399.624 49.0514 399.781 52.3887L399.803 53.6133C399.803 55.9049 399.359 57.9531 398.471 59.7578C397.597 61.5625 396.337 62.959 394.689 63.9473C393.057 64.9355 391.166 65.4297 389.018 65.4297C385.738 65.4297 383.109 64.3411 381.133 62.1641C379.171 59.9727 378.189 57.0579 378.189 53.4199V53.1621ZM383.41 53.6133C383.41 56.0052 383.904 57.8815 384.893 59.2422C385.881 60.5885 387.256 61.2617 389.018 61.2617C390.779 61.2617 392.147 60.5742 393.121 59.1992C394.109 57.8242 394.604 55.8118 394.604 53.1621C394.604 50.8132 394.095 48.9512 393.078 47.5762C392.076 46.2012 390.708 45.5137 388.975 45.5137C387.27 45.5137 385.917 46.194 384.914 47.5547C383.911 48.901 383.41 50.9206 383.41 53.6133ZM409.127 41.7539L409.277 44.1816C410.91 42.2767 413.145 41.3242 415.98 41.3242C419.089 41.3242 421.215 42.513 422.361 44.8906C424.051 42.513 426.429 41.3242 429.494 41.3242C432.058 41.3242 433.963 42.0332 435.209 43.4512C436.469 44.8691 437.114 46.9603 437.143 49.7246V65H431.922V49.875C431.922 48.3997 431.6 47.3184 430.955 46.6309C430.311 45.9434 429.243 45.5996 427.754 45.5996C426.565 45.5996 425.591 45.9219 424.832 46.5664C424.087 47.1966 423.564 48.0273 423.264 49.0586L423.285 65H418.064V49.7031C417.993 46.9674 416.596 45.5996 413.875 45.5996C411.784 45.5996 410.301 46.4518 409.428 48.1562V65H404.207V41.7539H409.127Z" fill="black"/>
<path d="M131.997 51.1845V65.0001H95.2109V2.16406H109.526V51.1845H131.997Z" fill="#333333"/>
<path d="M136.491 8.07298C136.491 3.66198 140.153 0 144.564 0C148.975 0 152.637 3.66198 152.637 8.07298C152.637 12.484 148.975 16.1459 144.564 16.1459C140.153 16.1459 136.491 12.484 136.491 8.07298ZM137.823 20.1408H151.305V64.9999H137.823V20.1408Z" fill="#333333"/>
<path d="M204.238 37.4519V64.9999H190.756V39.3661C190.756 33.7899 187.26 31.2099 182.932 31.2099C178.022 31.2099 174.61 34.0396 174.61 40.448V64.9166H161.127V20.0575H174.61V24.3021C177.023 20.973 181.517 18.8091 187.427 18.8091C196.498 18.8923 204.238 25.3008 204.238 37.4519Z" fill="#333333"/>
<path d="M256.503 37.4519V64.9999H243.021V39.3661C243.021 33.7899 239.525 31.2099 235.197 31.2099C230.287 31.2099 226.875 34.0396 226.875 40.448V64.9166H213.392V20.0575H226.875V24.3021C229.288 20.973 233.783 18.8091 239.692 18.8091C248.847 18.8923 256.503 25.3008 256.503 37.4519Z" fill="#333333"/>
<path d="M293.624 65.0001L279.309 45.1922V65.0001H265.826V2.16406H279.309V39.7825L292.791 20.141H308.521L292.209 42.5289L309.021 64.9169H293.624V65.0001Z" fill="#333333"/>
<path d="M340.646 19.2256V34.456C335.069 33.5405 327.163 35.7877 327.163 44.6929V65.0002H313.763V20.1411H327.246V28.1308C328.994 22.0553 334.986 19.2256 340.646 19.2256Z" fill="#333333"/>
<path d="M54.347 31.2097C47.5224 31.2097 40.781 31.2097 33.9565 31.2097C29.9616 31.2097 28.297 29.5452 28.297 25.4671C28.2138 19.8909 28.2138 14.2315 28.297 8.65535C28.297 4.66049 30.0448 2.82951 33.9565 2.82951C47.5224 2.74628 61.0883 2.74628 74.6543 2.82951C78.4827 2.82951 80.2304 4.57729 80.3137 8.32248C80.3969 14.1483 80.3969 19.9742 80.3137 25.8C80.2304 29.6284 78.5659 31.1265 74.6543 31.2097C67.9129 31.2097 61.1716 31.2097 54.347 31.2097Z" fill="#438AFF"/>
<path d="M23.7196 33.79C23.7196 41.863 23.7196 49.936 23.7196 58.009C23.7196 62.8361 22.1383 64.3341 17.3944 64.4174C13.4827 64.4174 9.65428 64.4174 5.74264 64.4174C1.74776 64.4174 0 62.7528 0 58.758C0 42.1127 0 25.3842 0 8.73886C0 4.74399 1.74776 2.99623 5.65941 2.91301C9.65429 2.82978 13.6492 2.82978 17.5608 2.91301C21.9718 2.99623 23.6364 4.57753 23.6364 8.98853C23.7196 17.228 23.7196 25.4674 23.7196 33.79Z" fill="#09CF83"/>
<path d="M28.2971 50.0189C28.2971 47.0228 28.2139 44.0266 28.2971 41.0304C28.3803 38.0343 30.0449 36.2033 33.1242 36.12C37.7017 36.0368 42.3624 36.0368 46.9398 36.12C50.0192 36.2033 51.8502 37.8678 51.9334 40.864C52.0999 47.106 52.0999 53.348 51.9334 59.59C51.8502 62.6694 50.0192 64.2507 46.9398 64.3339C42.4456 64.4172 37.9514 64.4172 33.3739 64.3339C29.9616 64.2507 28.2971 62.5029 28.2139 59.0906C28.2971 56.0113 28.2971 53.0151 28.2971 50.0189Z" fill="#FECB00"/>
<path d="M69.1612 61.837H67.4967C61.5044 61.837 56.594 56.9267 56.594 50.9344V49.1034C56.594 43.1111 61.5044 38.2007 67.4967 38.2007H69.1612C75.1535 38.2007 80.0639 43.1111 80.0639 49.1034V50.9344C80.0639 56.9267 75.1535 61.837 69.1612 61.837Z" fill="#FF0054"/>
</svg>
